<?xml version="1.0" encoding="UTF-8" standalone="no"?>
<!DOCTYPE svg PUBLIC "-//W3C//DTD SVG 1.1//EN"
 "http://www.w3.org/Graphics/SVG/1.1/DTD/svg11.dtd">
<!-- Generated by graphviz version 2.26.3 (20100126.1600)
 -->
<!-- Title: controllers_diagram Pages: 1 -->
<svg width="921pt" height="734pt"
 viewBox="0.00 0.00 921.00 734.50" xmlns="http://www.w3.org/2000/svg" xmlns:xlink="http://www.w3.org/1999/xlink">
<g id="graph1" class="graph" transform="scale(1 1) rotate(0) translate(4 730.498)">
<title>controllers_diagram</title>
<polygon fill="white" stroke="white" points="-4,5 -4,-730.498 918,-730.498 918,5 -4,5"/>
<!-- _diagram_info -->
<g id="node1" class="node"><title>_diagram_info</title>
<text text-anchor="start" x="711" y="-61.3" font-family="Times Roman,serif" font-size="13.00">Controllers diagram</text>
<text text-anchor="start" x="711" y="-44.3" font-family="Times Roman,serif" font-size="13.00">Date: Aug 09 2014 &#45; 19:31</text>
<text text-anchor="start" x="711" y="-27.3" font-family="Times Roman,serif" font-size="13.00">Generated by RailRoady 1.1.2</text>
<text text-anchor="start" x="711" y="-10.3" font-family="Times Roman,serif" font-size="13.00">http://railroady.prestonlee.com</text>
</g>
<!-- CoursesController -->
<g id="node2" class="node"><title>CoursesController</title>
<polyline fill="none" stroke="black" points="13,-310.098 129,-310.098 "/>
<path fill="none" stroke="black" d="M129,-310.098C135,-310.098 141,-316.098 141,-322.098"/>
<polyline fill="none" stroke="black" points="141,-322.098 141,-508.098 "/>
<path fill="none" stroke="black" d="M141,-508.098C141,-514.098 135,-520.098 129,-520.098"/>
<polyline fill="none" stroke="black" points="129,-520.098 13,-520.098 "/>
<path fill="none" stroke="black" d="M13,-520.098C7,-520.098 1,-514.098 1,-508.098"/>
<polyline fill="none" stroke="black" points="1,-508.098 1,-322.098 "/>
<path fill="none" stroke="black" d="M1,-322.098C1,-316.098 7,-310.098 13,-310.098"/>
<text text-anchor="middle" x="71" y="-503.498" font-family="Times Roman,serif" font-size="14.00">CoursesController</text>
<polyline fill="none" stroke="black" points="1,-494.098 141,-494.098 "/>
<text text-anchor="start" x="9" y="-477.498" font-family="Times Roman,serif" font-size="14.00">create</text>
<text text-anchor="start" x="9" y="-459.498" font-family="Times Roman,serif" font-size="14.00">destroy</text>
<text text-anchor="start" x="9" y="-441.498" font-family="Times Roman,serif" font-size="14.00">index</text>
<text text-anchor="start" x="9" y="-423.498" font-family="Times Roman,serif" font-size="14.00">new</text>
<text text-anchor="start" x="9" y="-405.498" font-family="Times Roman,serif" font-size="14.00">show</text>
<polyline fill="none" stroke="black" points="1,-396.098 141,-396.098 "/>
<polyline fill="none" stroke="black" points="1,-372.098 141,-372.098 "/>
<text text-anchor="start" x="9" y="-355.498" font-family="Times Roman,serif" font-size="14.00">_layout</text>
<text text-anchor="start" x="9" y="-337.498" font-family="Times Roman,serif" font-size="14.00">correct_user</text>
<text text-anchor="start" x="9" y="-319.498" font-family="Times Roman,serif" font-size="14.00">course_params</text>
</g>
<!-- UsersController -->
<g id="node3" class="node"><title>UsersController</title>
<polyline fill="none" stroke="black" points="519.613,-220.07 653.613,-220.07 "/>
<path fill="none" stroke="black" d="M653.613,-220.07C659.613,-220.07 665.613,-226.07 665.613,-232.07"/>
<polyline fill="none" stroke="black" points="665.613,-232.07 665.613,-508.07 "/>
<path fill="none" stroke="black" d="M665.613,-508.07C665.613,-514.07 659.613,-520.07 653.613,-520.07"/>
<polyline fill="none" stroke="black" points="653.613,-520.07 519.613,-520.07 "/>
<path fill="none" stroke="black" d="M519.613,-520.07C513.613,-520.07 507.613,-514.07 507.613,-508.07"/>
<polyline fill="none" stroke="black" points="507.613,-508.07 507.613,-232.07 "/>
<path fill="none" stroke="black" d="M507.613,-232.07C507.613,-226.07 513.613,-220.07 519.613,-220.07"/>
<text text-anchor="middle" x="586.613" y="-503.47" font-family="Times Roman,serif" font-size="14.00">UsersController</text>
<polyline fill="none" stroke="black" points="507.613,-494.07 665.613,-494.07 "/>
<text text-anchor="start" x="515.613" y="-477.47" font-family="Times Roman,serif" font-size="14.00">create</text>
<text text-anchor="start" x="515.613" y="-459.47" font-family="Times Roman,serif" font-size="14.00">destroy</text>
<text text-anchor="start" x="515.613" y="-441.47" font-family="Times Roman,serif" font-size="14.00">edit</text>
<text text-anchor="start" x="515.613" y="-423.47" font-family="Times Roman,serif" font-size="14.00">index</text>
<text text-anchor="start" x="515.613" y="-405.47" font-family="Times Roman,serif" font-size="14.00">new</text>
<text text-anchor="start" x="515.613" y="-387.47" font-family="Times Roman,serif" font-size="14.00">show</text>
<text text-anchor="start" x="515.613" y="-369.47" font-family="Times Roman,serif" font-size="14.00">update</text>
<polyline fill="none" stroke="black" points="507.613,-360.07 665.613,-360.07 "/>
<polyline fill="none" stroke="black" points="507.613,-336.07 665.613,-336.07 "/>
<text text-anchor="start" x="515.613" y="-319.47" font-family="Times Roman,serif" font-size="14.00">_layout</text>
<text text-anchor="start" x="515.613" y="-301.47" font-family="Times Roman,serif" font-size="14.00">admin_user</text>
<text text-anchor="start" x="515.613" y="-283.47" font-family="Times Roman,serif" font-size="14.00">all_profiles</text>
<text text-anchor="start" x="515.613" y="-265.47" font-family="Times Roman,serif" font-size="14.00">correct_user</text>
<text text-anchor="start" x="515.613" y="-247.47" font-family="Times Roman,serif" font-size="14.00">signed_in_user_filter</text>
<text text-anchor="start" x="515.613" y="-229.47" font-family="Times Roman,serif" font-size="14.00">user_params</text>
</g>
<!-- StaticPagesController -->
<g id="node4" class="node"><title>StaticPagesController</title>
<polyline fill="none" stroke="black" points="433.857,-55.5 574.857,-55.5 "/>
<path fill="none" stroke="black" d="M574.857,-55.5C580.857,-55.5 586.857,-61.5 586.857,-67.5"/>
<polyline fill="none" stroke="black" points="586.857,-67.5 586.857,-181.5 "/>
<path fill="none" stroke="black" d="M586.857,-181.5C586.857,-187.5 580.857,-193.5 574.857,-193.5"/>
<polyline fill="none" stroke="black" points="574.857,-193.5 433.857,-193.5 "/>
<path fill="none" stroke="black" d="M433.857,-193.5C427.857,-193.5 421.857,-187.5 421.857,-181.5"/>
<polyline fill="none" stroke="black" points="421.857,-181.5 421.857,-67.5 "/>
<path fill="none" stroke="black" d="M421.857,-67.5C421.857,-61.5 427.857,-55.5 433.857,-55.5"/>
<text text-anchor="middle" x="504.357" y="-176.9" font-family="Times Roman,serif" font-size="14.00">StaticPagesController</text>
<polyline fill="none" stroke="black" points="421.857,-167.5 586.857,-167.5 "/>
<text text-anchor="start" x="429.857" y="-150.9" font-family="Times Roman,serif" font-size="14.00">about</text>
<text text-anchor="start" x="429.857" y="-132.9" font-family="Times Roman,serif" font-size="14.00">contact</text>
<text text-anchor="start" x="429.857" y="-114.9" font-family="Times Roman,serif" font-size="14.00">home</text>
<polyline fill="none" stroke="black" points="421.857,-105.5 586.857,-105.5 "/>
<polyline fill="none" stroke="black" points="421.857,-81.5 586.857,-81.5 "/>
<text text-anchor="start" x="429.857" y="-64.9" font-family="Times Roman,serif" font-size="14.00">_layout</text>
</g>
<!-- ProfilesController -->
<g id="node5" class="node"><title>ProfilesController</title>
<polyline fill="none" stroke="black" points="102.059,-586.998 213.059,-586.998 "/>
<path fill="none" stroke="black" d="M213.059,-586.998C219.059,-586.998 225.059,-592.998 225.059,-598.998"/>
<polyline fill="none" stroke="black" points="225.059,-598.998 225.059,-712.998 "/>
<path fill="none" stroke="black" d="M225.059,-712.998C225.059,-718.998 219.059,-724.998 213.059,-724.998"/>
<polyline fill="none" stroke="black" points="213.059,-724.998 102.059,-724.998 "/>
<path fill="none" stroke="black" d="M102.059,-724.998C96.0592,-724.998 90.0592,-718.998 90.0592,-712.998"/>
<polyline fill="none" stroke="black" points="90.0592,-712.998 90.0592,-598.998 "/>
<path fill="none" stroke="black" d="M90.0592,-598.998C90.0592,-592.998 96.0592,-586.998 102.059,-586.998"/>
<text text-anchor="middle" x="157.559" y="-708.398" font-family="Times Roman,serif" font-size="14.00">ProfilesController</text>
<polyline fill="none" stroke="black" points="90.0592,-698.998 225.059,-698.998 "/>
<text text-anchor="start" x="98.0592" y="-682.398" font-family="Times Roman,serif" font-size="14.00">create</text>
<text text-anchor="start" x="98.0592" y="-664.398" font-family="Times Roman,serif" font-size="14.00">destroy</text>
<polyline fill="none" stroke="black" points="90.0592,-654.998 225.059,-654.998 "/>
<polyline fill="none" stroke="black" points="90.0592,-630.998 225.059,-630.998 "/>
<text text-anchor="start" x="98.0592" y="-614.398" font-family="Times Roman,serif" font-size="14.00">_layout</text>
<text text-anchor="start" x="98.0592" y="-596.398" font-family="Times Roman,serif" font-size="14.00">profile_params</text>
</g>
<!-- VideosController -->
<g id="node6" class="node"><title>VideosController</title>
<polyline fill="none" stroke="black" points="470.177,-571.159 576.177,-571.159 "/>
<path fill="none" stroke="black" d="M576.177,-571.159C582.177,-571.159 588.177,-577.159 588.177,-583.159"/>
<polyline fill="none" stroke="black" points="588.177,-583.159 588.177,-697.159 "/>
<path fill="none" stroke="black" d="M588.177,-697.159C588.177,-703.159 582.177,-709.159 576.177,-709.159"/>
<polyline fill="none" stroke="black" points="576.177,-709.159 470.177,-709.159 "/>
<path fill="none" stroke="black" d="M470.177,-709.159C464.177,-709.159 458.177,-703.159 458.177,-697.159"/>
<polyline fill="none" stroke="black" points="458.177,-697.159 458.177,-583.159 "/>
<path fill="none" stroke="black" d="M458.177,-583.159C458.177,-577.159 464.177,-571.159 470.177,-571.159"/>
<text text-anchor="middle" x="523.177" y="-692.559" font-family="Times Roman,serif" font-size="14.00">VideosController</text>
<polyline fill="none" stroke="black" points="458.177,-683.159 588.177,-683.159 "/>
<text text-anchor="start" x="466.177" y="-666.559" font-family="Times Roman,serif" font-size="14.00">check_course!</text>
<text text-anchor="start" x="466.177" y="-648.559" font-family="Times Roman,serif" font-size="14.00">index</text>
<text text-anchor="start" x="466.177" y="-630.559" font-family="Times Roman,serif" font-size="14.00">show</text>
<polyline fill="none" stroke="black" points="458.177,-621.159 588.177,-621.159 "/>
<polyline fill="none" stroke="black" points="458.177,-597.159 588.177,-597.159 "/>
<text text-anchor="start" x="466.177" y="-580.559" font-family="Times Roman,serif" font-size="14.00">_layout</text>
</g>
<!-- ApplicationController -->
<g id="node7" class="node"><title>ApplicationController</title>
<polyline fill="none" stroke="black" points="259.938,-338.108 396.938,-338.108 "/>
<path fill="none" stroke="black" d="M396.938,-338.108C402.938,-338.108 408.938,-344.108 408.938,-350.108"/>
<polyline fill="none" stroke="black" points="408.938,-350.108 408.938,-426.108 "/>
<path fill="none" stroke="black" d="M408.938,-426.108C408.938,-432.108 402.938,-438.108 396.938,-438.108"/>
<polyline fill="none" stroke="black" points="396.938,-438.108 259.938,-438.108 "/>
<path fill="none" stroke="black" d="M259.938,-438.108C253.938,-438.108 247.938,-432.108 247.938,-426.108"/>
<polyline fill="none" stroke="black" points="247.938,-426.108 247.938,-350.108 "/>
<path fill="none" stroke="black" d="M247.938,-350.108C247.938,-344.108 253.938,-338.108 259.938,-338.108"/>
<text text-anchor="middle" x="328.438" y="-421.508" font-family="Times Roman,serif" font-size="14.00">ApplicationController</text>
<polyline fill="none" stroke="black" points="247.938,-412.108 408.938,-412.108 "/>
<polyline fill="none" stroke="black" points="247.938,-388.108 408.938,-388.108 "/>
<polyline fill="none" stroke="black" points="247.938,-364.108 408.938,-364.108 "/>
<text text-anchor="start" x="255.938" y="-347.508" font-family="Times Roman,serif" font-size="14.00">_layout</text>
</g>
<!-- ApplicationController&#45;&gt;CoursesController -->
<g id="edge2" class="edge"><title>ApplicationController&#45;&gt;CoursesController</title>
<path fill="none" stroke="black" d="M247.689,-396.574C213.479,-400.16 173.994,-404.3 141.038,-407.755"/>
</g>
<!-- ApplicationController&#45;&gt;UsersController -->
<g id="edge4" class="edge"><title>ApplicationController&#45;&gt;UsersController</title>
<path fill="none" stroke="black" d="M409.064,-382.475C440.43,-380.283 476.261,-377.78 507.482,-375.598"/>
</g>
<!-- ApplicationController&#45;&gt;StaticPagesController -->
<g id="edge6" class="edge"><title>ApplicationController&#45;&gt;StaticPagesController</title>
<path fill="none" stroke="black" d="M361.941,-337.905C389.156,-297.124 427.839,-239.16 458.022,-193.931"/>
</g>
<!-- ApplicationController&#45;&gt;ProfilesController -->
<g id="edge8" class="edge"><title>ApplicationController&#45;&gt;ProfilesController</title>
<path fill="none" stroke="black" d="M296.498,-438.182C269.74,-480.131 231.268,-540.444 201.589,-586.973"/>
</g>
<!-- ApplicationController&#45;&gt;VideosController -->
<g id="edge10" class="edge"><title>ApplicationController&#45;&gt;VideosController</title>
<path fill="none" stroke="black" d="M367.145,-438.207C396.539,-476.252 437.305,-529.015 469.796,-571.068"/>
</g>
<!-- SessionsController -->
<g id="node8" class="node"><title>SessionsController</title>
<polyline fill="none" stroke="black" points="75.5139,-70.7333 195.514,-70.7333 "/>
<path fill="none" stroke="black" d="M195.514,-70.7333C201.514,-70.7333 207.514,-76.7333 207.514,-82.7333"/>
<polyline fill="none" stroke="black" points="207.514,-82.7333 207.514,-196.733 "/>
<path fill="none" stroke="black" d="M207.514,-196.733C207.514,-202.733 201.514,-208.733 195.514,-208.733"/>
<polyline fill="none" stroke="black" points="195.514,-208.733 75.5139,-208.733 "/>
<path fill="none" stroke="black" d="M75.5139,-208.733C69.5139,-208.733 63.5139,-202.733 63.5139,-196.733"/>
<polyline fill="none" stroke="black" points="63.5139,-196.733 63.5139,-82.7333 "/>
<path fill="none" stroke="black" d="M63.5139,-82.7333C63.5139,-76.7333 69.5139,-70.7333 75.5139,-70.7333"/>
<text text-anchor="middle" x="135.514" y="-192.133" font-family="Times Roman,serif" font-size="14.00">SessionsController</text>
<polyline fill="none" stroke="black" points="63.5139,-182.733 207.514,-182.733 "/>
<text text-anchor="start" x="71.5139" y="-166.133" font-family="Times Roman,serif" font-size="14.00">create</text>
<text text-anchor="start" x="71.5139" y="-148.133" font-family="Times Roman,serif" font-size="14.00">destroy</text>
<text text-anchor="start" x="71.5139" y="-130.133" font-family="Times Roman,serif" font-size="14.00">new</text>
<polyline fill="none" stroke="black" points="63.5139,-120.733 207.514,-120.733 "/>
<polyline fill="none" stroke="black" points="63.5139,-96.7333 207.514,-96.7333 "/>
<text text-anchor="start" x="71.5139" y="-80.1333" font-family="Times Roman,serif" font-size="14.00">_layout</text>
</g>
<!-- ApplicationController&#45;&gt;SessionsController -->
<g id="edge12" class="edge"><title>ApplicationController&#45;&gt;SessionsController</title>
<path fill="none" stroke="black" d="M289.397,-337.846C260.55,-300.707 220.931,-249.701 189.118,-208.744"/>
</g>
</g>
</svg>
