<?xml version="1.0" encoding="UTF-8" standalone="no"?>
<!DOCTYPE svg PUBLIC "-//W3C//DTD SVG 1.1//EN"
 "http://www.w3.org/Graphics/SVG/1.1/DTD/svg11.dtd">
<!-- Generated by graphviz version 2.26.3 (20100126.1600)
 -->
<!-- Title: models_diagram Pages: 1 -->
<svg width="606pt" height="728pt"
 viewBox="0.00 0.00 606.00 728.00" xmlns="http://www.w3.org/2000/svg" xmlns:xlink="http://www.w3.org/1999/xlink">
<g id="graph1" class="graph" transform="scale(1 1) rotate(0) translate(4 724)">
<title>models_diagram</title>
<polygon fill="white" stroke="white" points="-4,5 -4,-724 603,-724 603,5 -4,5"/>
<!-- _diagram_info -->
<g id="node1" class="node"><title>_diagram_info</title>
<text text-anchor="start" x="7.5" y="-607.3" font-family="Times Roman,serif" font-size="13.00">Models diagram</text>
<text text-anchor="start" x="7.5" y="-590.3" font-family="Times Roman,serif" font-size="13.00">Date: Aug 09 2014 &#45; 19:31</text>
<text text-anchor="start" x="7.5" y="-573.3" font-family="Times Roman,serif" font-size="13.00">Generated by RailRoady 1.1.2</text>
<text text-anchor="start" x="7.5" y="-556.3" font-family="Times Roman,serif" font-size="13.00">http://railroady.prestonlee.com</text>
</g>
<!-- User -->
<g id="node2" class="node"><title>User</title>
<polyline fill="none" stroke="black" points="238,-451 432,-451 "/>
<path fill="none" stroke="black" d="M432,-451C438,-451 444,-457 444,-463"/>
<polyline fill="none" stroke="black" points="444,-463 444,-707 "/>
<path fill="none" stroke="black" d="M444,-707C444,-713 438,-719 432,-719"/>
<polyline fill="none" stroke="black" points="432,-719 238,-719 "/>
<path fill="none" stroke="black" d="M238,-719C232,-719 226,-713 226,-707"/>
<polyline fill="none" stroke="black" points="226,-707 226,-463 "/>
<path fill="none" stroke="black" d="M226,-463C226,-457 232,-451 238,-451"/>
<text text-anchor="middle" x="335" y="-702.4" font-family="Times Roman,serif" font-size="14.00">User</text>
<polyline fill="none" stroke="black" points="226,-693 444,-693 "/>
<text text-anchor="start" x="234" y="-676.4" font-family="Times Roman,serif" font-size="14.00">_id :BSON::ObjectId</text>
<text text-anchor="start" x="234" y="-658.4" font-family="Times Roman,serif" font-size="14.00">admin :Mongoid::Boolean</text>
<text text-anchor="start" x="234" y="-640.4" font-family="Times Roman,serif" font-size="14.00">created_at :Time</text>
<text text-anchor="start" x="234" y="-622.4" font-family="Times Roman,serif" font-size="14.00">email :String</text>
<text text-anchor="start" x="234" y="-604.4" font-family="Times Roman,serif" font-size="14.00">name :String</text>
<text text-anchor="start" x="234" y="-586.4" font-family="Times Roman,serif" font-size="14.00">password_digest :String</text>
<text text-anchor="start" x="234" y="-568.4" font-family="Times Roman,serif" font-size="14.00">photo_content_type :String</text>
<text text-anchor="start" x="234" y="-550.4" font-family="Times Roman,serif" font-size="14.00">photo_file_name :String</text>
<text text-anchor="start" x="234" y="-532.4" font-family="Times Roman,serif" font-size="14.00">photo_file_size :Integer</text>
<text text-anchor="start" x="234" y="-514.4" font-family="Times Roman,serif" font-size="14.00">photo_fingerprint :String</text>
<text text-anchor="start" x="234" y="-496.4" font-family="Times Roman,serif" font-size="14.00">photo_updated_at :DateTime</text>
<text text-anchor="start" x="234" y="-478.4" font-family="Times Roman,serif" font-size="14.00">remember_token :String</text>
<text text-anchor="start" x="234" y="-460.4" font-family="Times Roman,serif" font-size="14.00">updated_at :Time</text>
</g>
<!-- Profile -->
<g id="node3" class="node"><title>Profile</title>
<polyline fill="none" stroke="black" points="215.5,-37 342.5,-37 "/>
<path fill="none" stroke="black" d="M342.5,-37C348.5,-37 354.5,-43 354.5,-49"/>
<polyline fill="none" stroke="black" points="354.5,-49 354.5,-149 "/>
<path fill="none" stroke="black" d="M354.5,-149C354.5,-155 348.5,-161 342.5,-161"/>
<polyline fill="none" stroke="black" points="342.5,-161 215.5,-161 "/>
<path fill="none" stroke="black" d="M215.5,-161C209.5,-161 203.5,-155 203.5,-149"/>
<polyline fill="none" stroke="black" points="203.5,-149 203.5,-49 "/>
<path fill="none" stroke="black" d="M203.5,-49C203.5,-43 209.5,-37 215.5,-37"/>
<text text-anchor="middle" x="279" y="-144.4" font-family="Times Roman,serif" font-size="14.00">Profile</text>
<polyline fill="none" stroke="black" points="203.5,-135 354.5,-135 "/>
<text text-anchor="start" x="211.5" y="-118.4" font-family="Times Roman,serif" font-size="14.00">_id :BSON::ObjectId</text>
<text text-anchor="start" x="211.5" y="-100.4" font-family="Times Roman,serif" font-size="14.00">course_id :Object</text>
<text text-anchor="start" x="211.5" y="-82.4" font-family="Times Roman,serif" font-size="14.00">created_at :Time</text>
<text text-anchor="start" x="211.5" y="-64.4" font-family="Times Roman,serif" font-size="14.00">updated_at :Time</text>
<text text-anchor="start" x="211.5" y="-46.4" font-family="Times Roman,serif" font-size="14.00">user_id :Object</text>
</g>
<!-- User&#45;&gt;Profile -->
<g id="edge4" class="edge"><title>User&#45;&gt;Profile</title>
<path fill="none" stroke="#b5e0b4" d="M313.973,-442.658C311.855,-426.927 309.819,-411.133 308,-396 298.795,-319.416 290.488,-231.454 285.148,-171.253"/>
<ellipse fill="none" stroke="#b5e0b4" cx="314.549" cy="-446.91" rx="4.00001" ry="4.00001"/>
<polygon fill="#b5e0b4" stroke="#b5e0b4" points="285.131,-171.052 288.734,-160.695 284.691,-166.072 284.252,-161.091 284.252,-161.091 284.252,-161.091 284.691,-166.072 279.769,-161.486 285.131,-171.052 285.131,-171.052"/>
<text text-anchor="middle" x="348" y="-320.4" font-family="Times Roman,serif" font-size="14.00">profile_user</text>
</g>
<!-- Course -->
<g id="node5" class="node"><title>Course</title>
<polyline fill="none" stroke="black" points="408.5,-253 535.5,-253 "/>
<path fill="none" stroke="black" d="M535.5,-253C541.5,-253 547.5,-259 547.5,-265"/>
<polyline fill="none" stroke="black" points="547.5,-265 547.5,-383 "/>
<path fill="none" stroke="black" d="M547.5,-383C547.5,-389 541.5,-395 535.5,-395"/>
<polyline fill="none" stroke="black" points="535.5,-395 408.5,-395 "/>
<path fill="none" stroke="black" d="M408.5,-395C402.5,-395 396.5,-389 396.5,-383"/>
<polyline fill="none" stroke="black" points="396.5,-383 396.5,-265 "/>
<path fill="none" stroke="black" d="M396.5,-265C396.5,-259 402.5,-253 408.5,-253"/>
<text text-anchor="middle" x="472" y="-378.4" font-family="Times Roman,serif" font-size="14.00">Course</text>
<polyline fill="none" stroke="black" points="396.5,-369 547.5,-369 "/>
<text text-anchor="start" x="404.5" y="-352.4" font-family="Times Roman,serif" font-size="14.00">_id :BSON::ObjectId</text>
<text text-anchor="start" x="404.5" y="-334.4" font-family="Times Roman,serif" font-size="14.00">author_id :Object</text>
<text text-anchor="start" x="404.5" y="-316.4" font-family="Times Roman,serif" font-size="14.00">created_at :Time</text>
<text text-anchor="start" x="404.5" y="-298.4" font-family="Times Roman,serif" font-size="14.00">description :String</text>
<text text-anchor="start" x="404.5" y="-280.4" font-family="Times Roman,serif" font-size="14.00">title :String</text>
<text text-anchor="start" x="404.5" y="-262.4" font-family="Times Roman,serif" font-size="14.00">updated_at :Time</text>
</g>
<!-- User&#45;&gt;Course -->
<g id="edge2" class="edge"><title>User&#45;&gt;Course</title>
<path fill="none" stroke="#9233b2" d="M409.264,-443.519C416.307,-430.101 423.269,-416.838 429.848,-404.305"/>
<ellipse fill="none" stroke="#9233b2" cx="407.366" cy="-447.136" rx="4.00002" ry="4.00002"/>
<polygon fill="#9233b2" stroke="#9233b2" points="429.919,-404.17 438.551,-397.407 432.242,-399.743 434.566,-395.315 434.566,-395.315 434.566,-395.315 432.242,-399.743 430.582,-393.224 429.919,-404.17 429.919,-404.17"/>
<text text-anchor="middle" x="456.5" y="-419.4" font-family="Times Roman,serif" font-size="14.00">author_of</text>
</g>
<!-- Video -->
<g id="node4" class="node"><title>Video</title>
<polyline fill="none" stroke="black" points="384,-1 586,-1 "/>
<path fill="none" stroke="black" d="M586,-1C592,-1 598,-7 598,-13"/>
<polyline fill="none" stroke="black" points="598,-13 598,-185 "/>
<path fill="none" stroke="black" d="M598,-185C598,-191 592,-197 586,-197"/>
<polyline fill="none" stroke="black" points="586,-197 384,-197 "/>
<path fill="none" stroke="black" d="M384,-197C378,-197 372,-191 372,-185"/>
<polyline fill="none" stroke="black" points="372,-185 372,-13 "/>
<path fill="none" stroke="black" d="M372,-13C372,-7 378,-1 384,-1"/>
<text text-anchor="middle" x="485" y="-180.4" font-family="Times Roman,serif" font-size="14.00">Video</text>
<polyline fill="none" stroke="black" points="372,-171 598,-171 "/>
<text text-anchor="start" x="380" y="-154.4" font-family="Times Roman,serif" font-size="14.00">_id :BSON::ObjectId</text>
<text text-anchor="start" x="380" y="-136.4" font-family="Times Roman,serif" font-size="14.00">created_at :Time</text>
<text text-anchor="start" x="380" y="-118.4" font-family="Times Roman,serif" font-size="14.00">picture_content_type :String</text>
<text text-anchor="start" x="380" y="-100.4" font-family="Times Roman,serif" font-size="14.00">picture_file_name :String</text>
<text text-anchor="start" x="380" y="-82.4" font-family="Times Roman,serif" font-size="14.00">picture_file_size :Integer</text>
<text text-anchor="start" x="380" y="-64.4" font-family="Times Roman,serif" font-size="14.00">picture_fingerprint :String</text>
<text text-anchor="start" x="380" y="-46.4" font-family="Times Roman,serif" font-size="14.00">picture_updated_at :DateTime</text>
<text text-anchor="start" x="380" y="-28.4" font-family="Times Roman,serif" font-size="14.00">title :String</text>
<text text-anchor="start" x="380" y="-10.4" font-family="Times Roman,serif" font-size="14.00">updated_at :Time</text>
</g>
<!-- Video&#45;&gt;Course -->
<g id="edge6" class="edge"><title>Video&#45;&gt;Course</title>
<path fill="none" stroke="#d06893" d="M485.49,-207.278C484.824,-219.213 484.053,-231.211 483.209,-242.735"/>
<polygon fill="#d06893" stroke="#d06893" points="485.49,-207.265 490.517,-197.519 485.757,-202.272 486.023,-197.279 486.023,-197.279 486.023,-197.279 485.757,-202.272 481.53,-197.039 485.49,-207.265 485.49,-207.265"/>
<polygon fill="#d06893" stroke="#d06893" points="483.201,-242.837 477.954,-252.467 482.821,-247.823 482.441,-252.809 482.441,-252.809 482.441,-252.809 482.821,-247.823 486.928,-253.15 483.201,-242.837 483.201,-242.837"/>
</g>
<!-- Course&#45;&gt;Profile -->
<g id="edge8" class="edge"><title>Course&#45;&gt;Profile</title>
<path fill="none" stroke="#a357d5" d="M390.775,-248.018C386.373,-243.351 382.085,-238.658 378,-234 360.406,-213.937 342.698,-190.901 327.221,-169.605"/>
<ellipse fill="none" stroke="#a357d5" cx="393.64" cy="-251.018" rx="4.00002" ry="4.00002"/>
<polygon fill="#a357d5" stroke="#a357d5" points="327.029,-169.338 324.831,-158.595 324.105,-165.283 321.181,-161.227 321.181,-161.227 321.181,-161.227 324.105,-165.283 317.53,-163.858 327.029,-169.338 327.029,-169.338"/>
<text text-anchor="middle" x="425.5" y="-221.4" font-family="Times Roman,serif" font-size="14.00">profile_course</text>
</g>
<!-- Course&#45;&gt;Video -->
<g id="edge10" class="edge"><title>Course&#45;&gt;Video</title>
<path fill="none" stroke="#7af4f8" d="M470.111,-244.433C470.608,-232.397 471.249,-219.81 471.997,-207.292"/>
<ellipse fill="none" stroke="#7af4f8" cx="469.941" cy="-248.812" rx="4" ry="4"/>
<polygon fill="#7af4f8" stroke="#7af4f8" points="471.999,-207.26 477.111,-197.558 472.31,-202.27 472.62,-197.279 472.62,-197.279 472.62,-197.279 472.31,-202.27 468.128,-197 471.999,-207.26 471.999,-207.26"/>
</g>
</g>
</svg>
