<?xml version="1.0" encoding="UTF-8" standalone="no"?>
<!DOCTYPE svg PUBLIC "-//W3C//DTD SVG 1.1//EN"
 "http://www.w3.org/Graphics/SVG/1.1/DTD/svg11.dtd">
<!-- Generated by graphviz version 2.26.3 (20100126.1600)
 -->
<!-- Title: models_diagram Pages: 1 -->
<svg width="418pt" height="268pt"
 viewBox="0.00 0.00 418.00 268.00" xmlns="http://www.w3.org/2000/svg" xmlns:xlink="http://www.w3.org/1999/xlink">
<g id="graph1" class="graph" transform="scale(1 1) rotate(0) translate(4 264)">
<title>models_diagram</title>
<polygon fill="white" stroke="white" points="-4,5 -4,-264 415,-264 415,5 -4,5"/>
<!-- _diagram_info -->
<g id="node1" class="node"><title>_diagram_info</title>
<text text-anchor="start" x="7.5" y="-244.3" font-family="Times Roman,serif" font-size="13.00">Models diagram</text>
<text text-anchor="start" x="7.5" y="-227.3" font-family="Times Roman,serif" font-size="13.00">Date: Aug 09 2014 &#45; 19:31</text>
<text text-anchor="start" x="7.5" y="-210.3" font-family="Times Roman,serif" font-size="13.00">Generated by RailRoady 1.1.2</text>
<text text-anchor="start" x="7.5" y="-193.3" font-family="Times Roman,serif" font-size="13.00">http://railroady.prestonlee.com</text>
</g>
<!-- User -->
<g id="node2" class="node"><title>User</title>
<ellipse fill="none" stroke="black" cx="260" cy="-222" rx="33.9411" ry="18.3848"/>
<text text-anchor="middle" x="260" y="-218.4" font-family="Times Roman,serif" font-size="14.00">User</text>
</g>
<!-- Profile -->
<g id="node3" class="node"><title>Profile</title>
<ellipse fill="none" stroke="black" cx="233" cy="-19" rx="41.2167" ry="18.3848"/>
<text text-anchor="middle" x="233" y="-15.4" font-family="Times Roman,serif" font-size="14.00">Profile</text>
</g>
<!-- User&#45;&gt;Profile -->
<g id="edge4" class="edge"><title>User&#45;&gt;Profile</title>
<path fill="none" stroke="#3cf69a" d="M248.693,-195.963C241.463,-177.851 232.76,-152.933 229,-130 226.268,-113.334 228.538,-108.883 229,-92 229.4,-77.3832 230.25,-61.1386 231.064,-47.6912"/>
<ellipse fill="none" stroke="#3cf69a" cx="250.374" cy="-200.072" rx="4.00001" ry="4.00001"/>
<polygon fill="#3cf69a" stroke="#3cf69a" points="231.072,-47.5713 236.191,-37.8738 231.386,-42.5812 231.7,-37.591 231.7,-37.591 231.7,-37.591 231.386,-42.5812 227.209,-37.3083 231.072,-47.5713 231.072,-47.5713"/>
<text text-anchor="middle" x="269" y="-107.4" font-family="Times Roman,serif" font-size="14.00">profile_user</text>
</g>
<!-- Course -->
<g id="node5" class="node"><title>Course</title>
<ellipse fill="none" stroke="black" cx="364" cy="-111" rx="45.9619" ry="18.3848"/>
<text text-anchor="middle" x="364" y="-107.4" font-family="Times Roman,serif" font-size="14.00">Course</text>
</g>
<!-- User&#45;&gt;Course -->
<g id="edge2" class="edge"><title>User&#45;&gt;Course</title>
<path fill="none" stroke="#6f5d06" d="M281.338,-199.225C298.638,-180.762 322.98,-154.78 340.769,-135.795"/>
<ellipse fill="none" stroke="#6f5d06" cx="278.53" cy="-202.223" rx="4.00002" ry="4.00002"/>
<polygon fill="#6f5d06" stroke="#6f5d06" points="340.875,-135.681 350.996,-131.461 344.294,-132.033 347.712,-128.384 347.712,-128.384 347.712,-128.384 344.294,-132.033 344.429,-125.307 340.875,-135.681 340.875,-135.681"/>
<text text-anchor="middle" x="360.5" y="-153.4" font-family="Times Roman,serif" font-size="14.00">author_of</text>
</g>
<!-- Video -->
<g id="node4" class="node"><title>Video</title>
<ellipse fill="none" stroke="black" cx="368" cy="-19" rx="38.1838" ry="18.3848"/>
<text text-anchor="middle" x="368" y="-15.4" font-family="Times Roman,serif" font-size="14.00">Video</text>
</g>
<!-- Video&#45;&gt;Course -->
<g id="edge6" class="edge"><title>Video&#45;&gt;Course</title>
<path fill="none" stroke="#cdfbf8" d="M373.058,-47.6037C373.174,-58.6574 372.626,-71.2828 371.55,-82.3416"/>
<polygon fill="#cdfbf8" stroke="#cdfbf8" points="373.057,-47.5848 377.235,-37.4461 372.897,-42.5873 372.738,-37.5899 372.738,-37.5899 372.738,-37.5899 372.897,-42.5873 368.24,-37.7337 373.057,-47.5848 373.057,-47.5848"/>
<polygon fill="#cdfbf8" stroke="#cdfbf8" points="371.537,-82.4522 365.889,-91.8518 370.948,-87.4173 370.358,-92.3824 370.358,-92.3824 370.358,-92.3824 370.948,-87.4173 374.827,-92.913 371.537,-82.4522 371.537,-82.4522"/>
</g>
<!-- Course&#45;&gt;Profile -->
<g id="edge8" class="edge"><title>Course&#45;&gt;Profile</title>
<path fill="none" stroke="#4d37f3" d="M319.267,-97.283C297.675,-90.0402 274.61,-81.1888 266,-74 257.126,-66.5904 250.022,-56.1449 244.712,-46.3446"/>
<ellipse fill="none" stroke="#4d37f3" cx="323.326" cy="-98.6206" rx="4.00001" ry="4.00001"/>
<polygon fill="#4d37f3" stroke="#4d37f3" points="244.645,-46.21 244.196,-35.2532 242.408,-41.7381 240.171,-37.2662 240.171,-37.2662 240.171,-37.2662 242.408,-41.7381 236.147,-39.2791 244.645,-46.21 244.645,-46.21"/>
<text text-anchor="middle" x="313.5" y="-61.4" font-family="Times Roman,serif" font-size="14.00">profile_course</text>
</g>
<!-- Course&#45;&gt;Video -->
<g id="edge10" class="edge"><title>Course&#45;&gt;Video</title>
<path fill="none" stroke="#7a755a" d="M358.964,-83.9712C358.773,-72.4599 359.331,-59.027 360.478,-47.3727"/>
<ellipse fill="none" stroke="#7a755a" cx="359.12" cy="-88.3849" rx="4" ry="4"/>
<polygon fill="#7a755a" stroke="#7a755a" points="360.498,-47.2044 366.159,-37.813 361.095,-42.2402 361.691,-37.2759 361.691,-37.2759 361.691,-37.2759 361.095,-42.2402 357.224,-36.7388 360.498,-47.2044 360.498,-47.2044"/>
</g>
</g>
</svg>
